<?xml version="1.0" encoding="UTF-8"?>
<!DOCTYPE svg PUBLIC "-//W3C//DTD SVG 1.1//EN" "http://www.w3.org/Graphics/SVG/1.1/DTD/svg11.dtd">
<svg xmlns="http://www.w3.org/2000/svg" version="1.1" width="434px" height="457px" style="shape-rendering:geometricPrecision; text-rendering:geometricPrecision; image-rendering:optimizeQuality; fill-rule:evenodd; clip-rule:evenodd" xmlns:xlink="http://www.w3.org/1999/xlink">
<g><path style="opacity:0.995" fill="#fefefe" d="M 202.5,29.5 C 261.095,62.9115 319.595,96.5782 378,130.5C 378.667,196.833 378.667,263.167 378,329.5C 321.202,362.483 264.035,394.816 206.5,426.5C 148.677,394.422 91.0103,362.089 33.5,329.5C 32.3334,263.503 32.1667,197.503 33,131.5C 89.6707,97.6367 146.171,63.6367 202.5,29.5 Z M 202.5,65.5 C 218.436,73.8028 234.103,82.6362 249.5,92C 252.227,97.5166 254.56,103.183 256.5,109C 238.619,111.855 220.619,113.022 202.5,112.5C 193.167,112.333 183.833,112.167 174.5,112C 168.373,111.902 162.373,111.069 156.5,109.5C 158.641,101.894 161.641,94.7271 165.5,88C 178.23,80.9767 190.563,73.4767 202.5,65.5 Z M 311.5,128.5 C 323.049,133.61 334.049,139.776 344.5,147C 331.452,158.081 316.452,165.248 299.5,168.5C 298.487,157.06 296.82,145.727 294.5,134.5C 300.309,132.64 305.976,130.64 311.5,128.5 Z M 93.5,130.5 C 101.563,131.849 109.563,133.516 117.5,135.5C 116.003,146.808 114.67,158.142 113.5,169.5C 96.2668,166.13 80.7668,159.13 67,148.5C 66.3123,147.668 66.479,147.002 67.5,146.5C 76.4709,141.502 85.1376,136.168 93.5,130.5 Z M 259.5,139.5 C 261.144,139.286 262.644,139.62 264,140.5C 266.472,152.441 267.972,164.274 268.5,176C 238.309,180.248 207.975,181.581 177.5,180C 166.011,179.485 154.678,177.985 143.5,175.5C 145.072,163.83 146.739,152.163 148.5,140.5C 185.69,144.788 222.69,144.455 259.5,139.5 Z M 304.5,241.5 C 303.17,235.034 302.503,228.201 302.5,221C 302.536,213.598 303.203,206.431 304.5,199.5C 319.946,196.191 334.446,190.525 348,182.5C 348.667,192.833 348.667,203.167 348,213.5C 343.966,220.972 338.133,226.806 330.5,231C 322.147,235.345 313.48,238.845 304.5,241.5 Z M 110.5,203.5 C 110.829,217.01 110.496,230.344 109.5,243.5C 94.8287,239.497 81.1621,233.33 68.5,225C 66.2911,223.127 64.4578,220.96 63,218.5C 62.1675,206.819 62.3341,195.152 63.5,183.5C 78.7233,191.609 94.7233,197.776 111.5,202C 110.944,202.383 110.611,202.883 110.5,203.5 Z M 141.5,250.5 C 141.5,236.167 141.5,221.833 141.5,207.5C 142.833,207.5 144.167,207.5 145.5,207.5C 187.216,213.111 228.882,212.778 270.5,206.5C 271.666,220.488 271.833,234.488 271,248.5C 262.377,250.934 253.543,252.434 244.5,253C 210.072,255.558 175.739,254.725 141.5,250.5 Z M 346.5,256.5 C 347.826,260.614 348.493,265.114 348.5,270C 350.812,280.756 347.478,289.089 338.5,295C 325.592,302.971 311.758,308.804 297,312.5C 298.488,299.917 299.655,287.25 300.5,274.5C 316.946,271.024 332.28,265.024 346.5,256.5 Z M 62.5,257.5 C 78.1888,266.064 94.8555,272.064 112.5,275.5C 112.904,287.443 114.237,299.276 116.5,311C 116.167,311.5 115.833,312 115.5,312.5C 103.843,309.225 92.5095,305.059 81.5,300C 73.5751,296.548 67.5751,291.048 63.5,283.5C 62.502,274.859 62.1686,266.192 62.5,257.5 Z M 143.5,281.5 C 184.151,286.833 224.818,286.833 265.5,281.5C 266.833,281.833 268.167,282.167 269.5,282.5C 267.809,294.501 265.976,306.501 264,318.5C 245.018,321.734 225.852,323.067 206.5,322.5C 187.398,322.941 168.398,321.774 149.5,319C 146.804,306.631 144.804,294.131 143.5,281.5 Z M 157.5,351.5 C 188.501,354.085 219.501,354.085 250.5,351.5C 252.167,351.833 253.833,352.167 255.5,352.5C 253.648,357.894 251.314,363.06 248.5,368C 234.628,376.034 220.628,383.867 206.5,391.5C 192.372,383.867 178.372,376.034 164.5,368C 161.491,362.813 159.158,357.313 157.5,351.5 Z"/></g>
<g><path style="opacity:0.4" fill="#e9e9e9" d="M 304.5,199.5 C 303.203,206.431 302.536,213.598 302.5,221C 302.503,228.201 303.17,235.034 304.5,241.5C 303.791,242.404 302.791,242.737 301.5,242.5C 301.5,228.167 301.5,213.833 301.5,199.5C 302.5,199.5 303.5,199.5 304.5,199.5 Z"/></g>
<g><path style="opacity:0.201" fill="#eeeded" d="M 145.5,207.5 C 144.167,207.5 142.833,207.5 141.5,207.5C 141.5,221.833 141.5,236.167 141.5,250.5C 140.504,236.01 140.171,221.343 140.5,206.5C 142.415,206.216 144.081,206.549 145.5,207.5 Z"/></g>
<g><path style="opacity:0.723" fill="#eeedea" d="M 110.5,203.5 C 111.826,217.006 111.826,230.672 110.5,244.5C 109.893,244.376 109.56,244.043 109.5,243.5C 110.496,230.344 110.829,217.01 110.5,203.5 Z"/></g>
</svg>
